<svg id="my-svg" width="100%" xmlns="http://www.w3.org/2000/svg" xmlns:xlink="http://www.w3.org/1999/xlink" class="statediagram" style="max-width: 2098.08px; background-color: white;" viewBox="0 0 2098.078125 2042" role="graphics-document document" aria-roledescription="stateDiagram"><style>#my-svg{font-family:"trebuchet ms",verdana,arial,sans-serif;font-size:16px;fill:#333;}@keyframes edge-animation-frame{from{stroke-dashoffset:0;}}@keyframes dash{to{stroke-dashoffset:0;}}#my-svg .edge-animation-slow{stroke-dasharray:9,5!important;stroke-dashoffset:900;animation:dash 50s linear infinite;stroke-linecap:round;}#my-svg .edge-animation-fast{stroke-dasharray:9,5!important;stroke-dashoffset:900;animation:dash 20s linear infinite;stroke-linecap:round;}#my-svg .error-icon{fill:#552222;}#my-svg .error-text{fill:#552222;stroke:#552222;}#my-svg .edge-thickness-normal{stroke-width:1px;}#my-svg .edge-thickness-thick{stroke-width:3.5px;}#my-svg .edge-pattern-solid{stroke-dasharray:0;}#my-svg .edge-thickness-invisible{stroke-width:0;fill:none;}#my-svg .edge-pattern-dashed{stroke-dasharray:3;}#my-svg .edge-pattern-dotted{stroke-dasharray:2;}#my-svg .marker{fill:#333333;stroke:#333333;}#my-svg .marker.cross{stroke:#333333;}#my-svg svg{font-family:"trebuchet ms",verdana,arial,sans-serif;font-size:16px;}#my-svg p{margin:0;}#my-svg defs [id$="-barbEnd"]{fill:#333333;stroke:#333333;}#my-svg g.stateGroup text{fill:#9370DB;stroke:none;font-size:10px;}#my-svg g.stateGroup text{fill:#333;stroke:none;font-size:10px;}#my-svg g.stateGroup .state-title{font-weight:bolder;fill:#131300;}#my-svg g.stateGroup rect{fill:#ECECFF;stroke:#9370DB;}#my-svg g.stateGroup line{stroke:#333333;stroke-width:1;}#my-svg .transition{stroke:#333333;stroke-width:1;fill:none;}#my-svg .stateGroup .composit{fill:white;border-bottom:1px;}#my-svg .stateGroup .alt-composit{fill:#e0e0e0;border-bottom:1px;}#my-svg .state-note{stroke:#aaaa33;fill:#fff5ad;}#my-svg .state-note text{fill:black;stroke:none;font-size:10px;}#my-svg .stateLabel .box{stroke:none;stroke-width:0;fill:#ECECFF;opacity:0.5;}#my-svg .edgeLabel .label rect{fill:#ECECFF;opacity:0.5;}#my-svg .edgeLabel{background-color:rgba(232,232,232, 0.8);text-align:center;}#my-svg .edgeLabel p{background-color:rgba(232,232,232, 0.8);}#my-svg .edgeLabel rect{opacity:0.5;background-color:rgba(232,232,232, 0.8);fill:rgba(232,232,232, 0.8);}#my-svg .edgeLabel .label text{fill:#333;}#my-svg .label div .edgeLabel{color:#333;}#my-svg .stateLabel text{fill:#131300;font-size:10px;font-weight:bold;}#my-svg .node circle.state-start{fill:#333333;stroke:#333333;}#my-svg .node .fork-join{fill:#333333;stroke:#333333;}#my-svg .node circle.state-end{fill:#9370DB;stroke:white;stroke-width:1.5;}#my-svg .end-state-inner{fill:white;stroke-width:1.5;}#my-svg .node rect{fill:#ECECFF;stroke:#9370DB;stroke-width:1px;}#my-svg .node polygon{fill:#ECECFF;stroke:#9370DB;stroke-width:1px;}#my-svg [id$="-barbEnd"]{fill:#333333;}#my-svg .statediagram-cluster rect{fill:#ECECFF;stroke:#9370DB;stroke-width:1px;}#my-svg .cluster-label,#my-svg .nodeLabel{color:#131300;}#my-svg .statediagram-cluster rect.outer{rx:5px;ry:5px;}#my-svg .statediagram-state .divider{stroke:#9370DB;}#my-svg .statediagram-state .title-state{rx:5px;ry:5px;}#my-svg .statediagram-cluster.statediagram-cluster .inner{fill:white;}#my-svg .statediagram-cluster.statediagram-cluster-alt .inner{fill:#f0f0f0;}#my-svg .statediagram-cluster .inner{rx:0;ry:0;}#my-svg .statediagram-state rect.basic{rx:5px;ry:5px;}#my-svg .statediagram-state rect.divider{stroke-dasharray:10,10;fill:#f0f0f0;}#my-svg .note-edge{stroke-dasharray:5;}#my-svg .statediagram-note rect{fill:#fff5ad;stroke:#aaaa33;stroke-width:1px;rx:0;ry:0;}#my-svg .statediagram-note rect{fill:#fff5ad;stroke:#aaaa33;stroke-width:1px;rx:0;ry:0;}#my-svg .statediagram-note text{fill:black;}#my-svg .statediagram-note .nodeLabel{color:black;}#my-svg .statediagram .edgeLabel{color:red;}#my-svg [id$="-dependencyStart"],#my-svg [id$="-dependencyEnd"]{fill:#333333;stroke:#333333;stroke-width:1;}#my-svg .statediagramTitleText{text-anchor:middle;font-size:18px;fill:#333;}#my-svg [data-look="neo"].statediagram-cluster rect{fill:#ECECFF;stroke:#9370DB;stroke-width:1;}#my-svg [data-look="neo"].statediagram-cluster rect.outer{rx:5px;ry:5px;filter:drop-shadow(1px 2px 2px rgba(185, 185, 185, 1));}#my-svg .node .neo-node{stroke:#9370DB;}#my-svg [data-look="neo"].node rect,#my-svg [data-look="neo"].cluster rect,#my-svg [data-look="neo"].node polygon{stroke:#9370DB;filter:drop-shadow(1px 2px 2px rgba(185, 185, 185, 1));}#my-svg [data-look="neo"].swimlane.cluster rect{filter:none;}#my-svg [data-look="neo"].node path{stroke:#9370DB;stroke-width:1px;}#my-svg [data-look="neo"].node .outer-path{filter:drop-shadow(1px 2px 2px rgba(185, 185, 185, 1));}#my-svg [data-look="neo"].node .neo-line path{stroke:#9370DB;filter:none;}#my-svg [data-look="neo"].node circle{stroke:#9370DB;filter:drop-shadow(1px 2px 2px rgba(185, 185, 185, 1));}#my-svg [data-look="neo"].node circle .state-start{fill:#000000;}#my-svg [data-look="neo"].icon-shape .icon{fill:#9370DB;filter:drop-shadow(1px 2px 2px rgba(185, 185, 185, 1));}#my-svg [data-look="neo"].icon-shape .icon-neo path{stroke:#9370DB;filter:drop-shadow(1px 2px 2px rgba(185, 185, 185, 1));}#my-svg :root{--mermaid-font-family:"trebuchet ms",verdana,arial,sans-serif;}</style><g><defs><marker id="my-svg_stateDiagram-barbEnd" refX="19" refY="7" markerWidth="20" markerHeight="14" markerUnits="userSpaceOnUse" orient="auto"><path d="M 19,7 L9,13 L14,7 L9,1 Z"/></marker></defs><g class="root"><g class="clusters"/><g class="edgePaths"><path d="M1006.426,22L1006.426,26.167C1006.426,30.333,1006.426,38.667,1006.426,47C1006.426,55.333,1006.426,63.667,1006.426,67.833L1006.426,72" id="my-svg-edge0" class="edge-thickness-normal edge-pattern-solid transition" style="fill:none;;;fill:none" data-edge="true" data-et="edge" data-id="edge0" data-points="W3sieCI6MTAwNi40MjU3ODEyNSwieSI6MjJ9LHsieCI6MTAwNi40MjU3ODEyNSwieSI6NDd9LHsieCI6MTAwNi40MjU3ODEyNSwieSI6NzJ9XQ==" data-look="classic" marker-end="url(#my-svg_stateDiagram-barbEnd)"/><path d="M969.84,95.226L868.215,104.189C766.59,113.151,563.34,131.075,461.715,146.204C360.09,161.333,360.09,173.667,360.09,179.833L360.09,186" id="my-svg-edge1" class="edge-thickness-normal edge-pattern-solid transition" style="fill:none;;;fill:none" data-edge="true" data-et="edge" data-id="edge1" data-points="W3sieCI6OTY5LjgzOTg0Mzc1LCJ5Ijo5NS4yMjY0OTMwOTIwNjk0OH0seyJ4IjozNjAuMDg5ODQzNzUsInkiOjE0OX0seyJ4IjozNjAuMDg5ODQzNzUsInkiOjE4Nn1d" data-look="classic" marker-end="url(#my-svg_stateDiagram-barbEnd)"/><path d="M360.09,226L360.09,234.167C360.09,242.333,360.09,258.667,360.09,275C360.09,291.333,360.09,307.667,360.09,315.833L360.09,324" id="my-svg-edge2" class="edge-thickness-normal edge-pattern-solid transition" style="fill:none;;;fill:none" data-edge="true" data-et="edge" data-id="edge2" data-points="W3sieCI6MzYwLjA4OTg0Mzc1LCJ5IjoyMjZ9LHsieCI6MzYwLjA4OTg0Mzc1LCJ5IjoyNzV9LHsieCI6MzYwLjA4OTg0Mzc1LCJ5IjozMjR9XQ==" data-look="classic" marker-end="url(#my-svg_stateDiagram-barbEnd)"/><path d="M414.738,208.313L677.295,219.428C939.852,230.542,1464.965,252.771,1727.521,275.386C1990.078,298,1990.078,321,1990.078,346C1990.078,371,1990.078,398,1990.078,425C1990.078,452,1990.078,479,1990.078,504C1990.078,529,1990.078,552,1990.078,575C1990.078,598,1990.078,621,1990.078,644C1990.078,667,1990.078,690,1990.078,713C1990.078,736,1990.078,759,1990.078,784C1990.078,809,1990.078,836,1990.078,863.667C1990.078,891.333,1990.078,919.667,1990.078,946C1990.078,972.333,1990.078,996.667,1990.078,1020.333C1990.078,1044,1990.078,1067,1990.078,1090C1990.078,1113,1990.078,1136,1990.078,1159.667C1990.078,1183.333,1990.078,1207.667,1990.078,1232C1990.078,1256.333,1990.078,1280.667,1990.078,1304.333C1990.078,1328,1990.078,1351,1990.078,1374C1990.078,1397,1990.078,1420,1990.078,1443.667C1990.078,1467.333,1990.078,1491.667,1990.078,1516C1990.078,1540.333,1990.078,1564.667,1990.078,1589C1990.078,1613.333,1990.078,1637.667,1990.078,1662C1990.078,1686.333,1990.078,1710.667,1990.078,1731.667C1990.078,1752.667,1990.078,1770.333,1990.078,1779.167L1990.078,1788" id="my-svg-edge3" class="edge-thickness-normal edge-pattern-solid transition" style="fill:none;;;fill:none" data-edge="true" data-et="edge" data-id="edge3" data-points="W3sieCI6NDE0LjczODI4MTI1LCJ5IjoyMDguMzEzMzU1Mzk3MDE0NDV9LHsieCI6MTk5MC4wNzgxMjUsInkiOjI3NX0seyJ4IjoxOTkwLjA3ODEyNSwieSI6MzQ0fSx7IngiOjE5OTAuMDc4MTI1LCJ5Ijo0MjV9LHsieCI6MTk5MC4wNzgxMjUsInkiOjUwNn0seyJ4IjoxOTkwLjA3ODEyNSwieSI6NTc1fSx7IngiOjE5OTAuMDc4MTI1LCJ5Ijo2NDR9LHsieCI6MTk5MC4wNzgxMjUsInkiOjcxM30seyJ4IjoxOTkwLjA3ODEyNSwieSI6NzgyfSx7IngiOjE5OTAuMDc4MTI1LCJ5Ijo4NjN9LHsieCI6MTk5MC4wNzgxMjUsInkiOjk0OH0seyJ4IjoxOTkwLjA3ODEyNSwieSI6MTAyMX0seyJ4IjoxOTkwLjA3ODEyNSwieSI6MTA5MH0seyJ4IjoxOTkwLjA3ODEyNSwieSI6MTE1OX0seyJ4IjoxOTkwLjA3ODEyNSwieSI6MTIzMn0seyJ4IjoxOTkwLjA3ODEyNSwieSI6MTMwNX0seyJ4IjoxOTkwLjA3ODEyNSwieSI6MTM3NH0seyJ4IjoxOTkwLjA3ODEyNSwieSI6MTQ0M30seyJ4IjoxOTkwLjA3ODEyNSwieSI6MTUxNn0seyJ4IjoxOTkwLjA3ODEyNSwieSI6MTU4OX0seyJ4IjoxOTkwLjA3ODEyNSwieSI6MTY2Mn0seyJ4IjoxOTkwLjA3ODEyNSwieSI6MTczNX0seyJ4IjoxOTkwLjA3ODEyNSwieSI6MTc4OH1d" data-look="classic" marker-end="url(#my-svg_stateDiagram-barbEnd)"/><path d="M360.09,364L360.09,374.167C360.09,384.333,360.09,404.667,360.09,425C360.09,445.333,360.09,465.667,360.09,475.833L360.09,486" id="my-svg-edge4" class="edge-thickness-normal edge-pattern-solid transition" style="fill:none;;;fill:none" data-edge="true" data-et="edge" data-id="edge4" data-points="W3sieCI6MzYwLjA4OTg0Mzc1LCJ5IjozNjR9LHsieCI6MzYwLjA4OTg0Mzc1LCJ5Ijo0MjV9LHsieCI6MzYwLjA4OTg0Mzc1LCJ5Ijo0ODZ9XQ==" data-look="classic" marker-end="url(#my-svg_stateDiagram-barbEnd)"/><path d="M360.09,526L360.09,534.167C360.09,542.333,360.09,558.667,360.09,575C360.09,591.333,360.09,607.667,360.09,615.833L360.09,624" id="my-svg-edge5" class="edge-thickness-normal edge-pattern-solid transition" style="fill:none;;;fill:none" data-edge="true" data-et="edge" data-id="edge5" data-points="W3sieCI6MzYwLjA4OTg0Mzc1LCJ5Ijo1MjZ9LHsieCI6MzYwLjA4OTg0Mzc1LCJ5Ijo1NzV9LHsieCI6MzYwLjA4OTg0Mzc1LCJ5Ijo2MjR9XQ==" data-look="classic" marker-end="url(#my-svg_stateDiagram-barbEnd)"/><path d="M438.395,651.162L551.085,661.468C663.775,671.774,889.155,692.387,1001.845,710.86C1114.535,729.333,1114.535,745.667,1114.535,753.833L1114.535,762" id="my-svg-edge6" class="edge-thickness-normal edge-pattern-solid transition" style="fill:none;;;fill:none" data-edge="true" data-et="edge" data-id="edge6" data-points="W3sieCI6NDM4LjM5NDUzMTI1LCJ5Ijo2NTEuMTYxNTgzOTQ1MTU4M30seyJ4IjoxMTE0LjUzNTE1NjI1LCJ5Ijo3MTN9LHsieCI6MTExNC41MzUxNTYyNSwieSI6NzYyfV0=" data-look="classic" marker-end="url(#my-svg_stateDiagram-barbEnd)"/><path d="M281.785,663.815L249.391,672.013C216.997,680.21,152.21,696.605,119.816,716.303C87.422,736,87.422,759,87.422,784C87.422,809,87.422,836,87.422,863.667C87.422,891.333,87.422,919.667,87.422,946C87.422,972.333,87.422,996.667,87.422,1020.333C87.422,1044,87.422,1067,87.422,1090C87.422,1113,87.422,1136,87.422,1159.667C87.422,1183.333,87.422,1207.667,87.422,1232C87.422,1256.333,87.422,1280.667,87.422,1304.333C87.422,1328,87.422,1351,87.422,1374C87.422,1397,87.422,1420,97.865,1440.333C108.307,1460.667,129.193,1478.333,139.636,1487.167L150.079,1496" id="my-svg-edge7" class="edge-thickness-normal edge-pattern-solid transition" style="fill:none;;;fill:none" data-edge="true" data-et="edge" data-id="edge7" data-points="W3sieCI6MjgxLjc4NTE1NjI1LCJ5Ijo2NjMuODE1Mzk0NzUzODA3MX0seyJ4Ijo4Ny40MjE4NzUsInkiOjcxM30seyJ4Ijo4Ny40MjE4NzUsInkiOjc4Mn0seyJ4Ijo4Ny40MjE4NzUsInkiOjg2M30seyJ4Ijo4Ny40MjE4NzUsInkiOjk0OH0seyJ4Ijo4Ny40MjE4NzUsInkiOjEwMjF9LHsieCI6ODcuNDIxODc1LCJ5IjoxMDkwfSx7IngiOjg3LjQyMTg3NSwieSI6MTE1OX0seyJ4Ijo4Ny40MjE4NzUsInkiOjEyMzJ9LHsieCI6ODcuNDIxODc1LCJ5IjoxMzA1fSx7IngiOjg3LjQyMTg3NSwieSI6MTM3NH0seyJ4Ijo4Ny40MjE4NzUsInkiOjE0NDN9LHsieCI6MTUwLjA3ODYwNjU5MjQ2NTc1LCJ5IjoxNDk2fV0=" data-look="classic" marker-end="url(#my-svg_stateDiagram-barbEnd)"/><path d="M385.403,664L395.74,672.167C406.076,680.333,426.749,696.667,437.085,716.333C447.422,736,447.422,759,447.422,784C447.422,809,447.422,836,447.422,863.667C447.422,891.333,447.422,919.667,447.422,946C447.422,972.333,447.422,996.667,447.422,1020.333C447.422,1044,447.422,1067,447.422,1090C447.422,1113,447.422,1136,447.422,1159.667C447.422,1183.333,447.422,1207.667,447.422,1232C447.422,1256.333,447.422,1280.667,447.422,1304.333C447.422,1328,447.422,1351,447.422,1374C447.422,1397,447.422,1420,447.422,1443.667C447.422,1467.333,447.422,1491.667,447.422,1516C447.422,1540.333,447.422,1564.667,457.552,1585.667C467.683,1606.667,487.943,1624.333,498.074,1633.167L508.204,1642" id="my-svg-edge8" class="edge-thickness-normal edge-pattern-solid transition" style="fill:none;;;fill:none" data-edge="true" data-et="edge" data-id="edge8" data-points="W3sieCI6Mzg1LjQwMzQ3NTk5NjM3NjgsInkiOjY2NH0seyJ4Ijo0NDcuNDIxODc1LCJ5Ijo3MTN9LHsieCI6NDQ3LjQyMTg3NSwieSI6NzgyfSx7IngiOjQ0Ny40MjE4NzUsInkiOjg2M30seyJ4Ijo0NDcuNDIxODc1LCJ5Ijo5NDh9LHsieCI6NDQ3LjQyMTg3NSwieSI6MTAyMX0seyJ4Ijo0NDcuNDIxODc1LCJ5IjoxMDkwfSx7IngiOjQ0Ny40MjE4NzUsInkiOjExNTl9LHsieCI6NDQ3LjQyMTg3NSwieSI6MTIzMn0seyJ4Ijo0NDcuNDIxODc1LCJ5IjoxMzA1fSx7IngiOjQ0Ny40MjE4NzUsInkiOjEzNzR9LHsieCI6NDQ3LjQyMTg3NSwieSI6MTQ0M30seyJ4Ijo0NDcuNDIxODc1LCJ5IjoxNTE2fSx7IngiOjQ0Ny40MjE4NzUsInkiOjE1ODl9LHsieCI6NTA4LjIwMzk4MTE2NDM4MzU1LCJ5IjoxNjQyfV0=" data-look="classic" marker-end="url(#my-svg_stateDiagram-barbEnd)"/><path d="M438.395,657.129L493.933,666.441C549.471,675.753,660.548,694.376,716.087,715.188C771.625,736,771.625,759,771.625,784C771.625,809,771.625,836,771.625,863.667C771.625,891.333,771.625,919.667,771.625,946C771.625,972.333,771.625,996.667,771.625,1020.333C771.625,1044,771.625,1067,771.625,1090C771.625,1113,771.625,1136,771.625,1159.667C771.625,1183.333,771.625,1207.667,771.625,1232C771.625,1256.333,771.625,1280.667,771.625,1304.333C771.625,1328,771.625,1351,771.625,1374C771.625,1397,771.625,1420,771.625,1443.667C771.625,1467.333,771.625,1491.667,771.625,1516C771.625,1540.333,771.625,1564.667,771.625,1589C771.625,1613.333,771.625,1637.667,771.625,1662C771.625,1686.333,771.625,1710.667,863.452,1732.982C955.279,1755.298,1138.932,1775.597,1230.759,1785.746L1322.586,1795.895" id="my-svg-edge9" class="edge-thickness-normal edge-pattern-solid transition" style="fill:none;;;fill:none" data-edge="true" data-et="edge" data-id="edge9" data-points="W3sieCI6NDM4LjM5NDUzMTI1LCJ5Ijo2NTcuMTI4OTQ3NDQzMzU3MX0seyJ4Ijo3NzEuNjI1LCJ5Ijo3MTN9LHsieCI6NzcxLjYyNSwieSI6NzgyfSx7IngiOjc3MS42MjUsInkiOjg2M30seyJ4Ijo3NzEuNjI1LCJ5Ijo5NDh9LHsieCI6NzcxLjYyNSwieSI6MTAyMX0seyJ4Ijo3NzEuNjI1LCJ5IjoxMDkwfSx7IngiOjc3MS42MjUsInkiOjExNTl9LHsieCI6NzcxLjYyNSwieSI6MTIzMn0seyJ4Ijo3NzEuNjI1LCJ5IjoxMzA1fSx7IngiOjc3MS42MjUsInkiOjEzNzR9LHsieCI6NzcxLjYyNSwieSI6MTQ0M30seyJ4Ijo3NzEuNjI1LCJ5IjoxNTE2fSx7IngiOjc3MS42MjUsInkiOjE1ODl9LHsieCI6NzcxLjYyNSwieSI6MTY2Mn0seyJ4Ijo3NzEuNjI1LCJ5IjoxNzM1fSx7IngiOjEzMjIuNTg1OTM3NSwieSI6MTc5NS44OTQ5Mjc5NjQ3OTg2fV0=" data-look="classic" marker-end="url(#my-svg_stateDiagram-barbEnd)"/><path d="M215.832,1496L234.43,1487.167C253.029,1478.333,290.225,1460.667,308.824,1440.333C327.422,1420,327.422,1397,327.422,1374C327.422,1351,327.422,1328,327.422,1304.333C327.422,1280.667,327.422,1256.333,327.422,1232C327.422,1207.667,327.422,1183.333,327.422,1159.667C327.422,1136,327.422,1113,327.422,1090C327.422,1067,327.422,1044,327.422,1020.333C327.422,996.667,327.422,972.333,327.422,946C327.422,919.667,327.422,891.333,327.422,863.667C327.422,836,327.422,809,327.422,784C327.422,759,327.422,736,331.288,716.333C335.155,696.667,342.888,680.333,346.754,672.167L350.621,664" id="my-svg-edge10" class="edge-thickness-normal edge-pattern-solid transition" style="fill:none;;;fill:none" data-edge="true" data-et="edge" data-id="edge10" data-points="W3sieCI6MjE1LjgzMjAzMTI1LCJ5IjoxNDk2fSx7IngiOjMyNy40MjE4NzUsInkiOjE0NDN9LHsieCI6MzI3LjQyMTg3NSwieSI6MTM3NH0seyJ4IjozMjcuNDIxODc1LCJ5IjoxMzA1fSx7IngiOjMyNy40MjE4NzUsInkiOjEyMzJ9LHsieCI6MzI3LjQyMTg3NSwieSI6MTE1OX0seyJ4IjozMjcuNDIxODc1LCJ5IjoxMDkwfSx7IngiOjMyNy40MjE4NzUsInkiOjEwMjF9LHsieCI6MzI3LjQyMTg3NSwieSI6OTQ4fSx7IngiOjMyNy40MjE4NzUsInkiOjg2M30seyJ4IjozMjcuNDIxODc1LCJ5Ijo3ODJ9LHsieCI6MzI3LjQyMTg3NSwieSI6NzEzfSx7IngiOjM1MC42MjA4NjczMDA3MjQ2LCJ5Ijo2NjR9XQ==" data-look="classic" marker-end="url(#my-svg_stateDiagram-barbEnd)"/><path d="M591.352,1669.701L676.438,1680.585C761.523,1691.468,931.695,1713.234,1056.742,1732.95C1181.789,1752.667,1261.71,1770.333,1301.671,1779.167L1341.632,1788" id="my-svg-edge11" class="edge-thickness-normal edge-pattern-solid transition" style="fill:none;;;fill:none" data-edge="true" data-et="edge" data-id="edge11" data-points="W3sieCI6NTkxLjM1MTU2MjUsInkiOjE2NjkuNzAxNDA4NTY2MzgzNH0seyJ4IjoxMTAxLjg2NzE4NzUsInkiOjE3MzV9LHsieCI6MTM0MS42MzIwNjMzNTYxNjQzLCJ5IjoxNzg4fV0=" data-look="classic" marker-end="url(#my-svg_stateDiagram-barbEnd)"/><path d="M531.141,1682L531.141,1690.833C531.141,1699.667,531.141,1717.333,531.141,1738.333C531.141,1759.333,531.141,1783.667,531.141,1808C531.141,1832.333,531.141,1856.667,702.676,1879.783C874.211,1902.899,1217.281,1924.797,1388.816,1935.747L1560.352,1946.696" id="my-svg-edge12" class="edge-thickness-normal edge-pattern-solid transition" style="fill:none;;;fill:none" data-edge="true" data-et="edge" data-id="edge12" data-points="W3sieCI6NTMxLjE0MDYyNSwieSI6MTY4Mn0seyJ4Ijo1MzEuMTQwNjI1LCJ5IjoxNzM1fSx7IngiOjUzMS4xNDA2MjUsInkiOjE4MDh9LHsieCI6NTMxLjE0MDYyNSwieSI6MTg4MX0seyJ4IjoxNTYwLjM1MTU2MjUsInkiOjE5NDYuNjk2MjE0MzMzMjA4fV0=" data-look="classic" marker-end="url(#my-svg_stateDiagram-barbEnd)"/><path d="M1114.535,802L1114.535,812.167C1114.535,822.333,1114.535,842.667,1114.535,863.667C1114.535,884.667,1114.535,906.333,1114.535,917.167L1114.535,928" id="my-svg-edge13" class="edge-thickness-normal edge-pattern-solid transition" style="fill:none;;;fill:none" data-edge="true" data-et="edge" data-id="edge13" data-points="W3sieCI6MTExNC41MzUxNTYyNSwieSI6ODAyfSx7IngiOjExMTQuNTM1MTU2MjUsInkiOjg2M30seyJ4IjoxMTE0LjUzNTE1NjI1LCJ5Ijo5Mjh9XQ==" data-look="classic" marker-end="url(#my-svg_stateDiagram-barbEnd)"/><path d="M1143.544,968L1156.356,976.833C1169.169,985.667,1194.793,1003.333,1207.606,1020.333C1220.418,1037.333,1220.418,1053.667,1220.418,1061.833L1220.418,1070" id="my-svg-edge14" class="edge-thickness-normal edge-pattern-solid transition" style="fill:none;;;fill:none" data-edge="true" data-et="edge" data-id="edge14" data-points="W3sieCI6MTE0My41NDQxNDU5NzYwMjc1LCJ5Ijo5Njh9LHsieCI6MTIyMC40MTc5Njg3NSwieSI6MTAyMX0seyJ4IjoxMjIwLjQxNzk2ODc1LCJ5IjoxMDcwfV0=" data-look="classic" marker-end="url(#my-svg_stateDiagram-barbEnd)"/><path d="M1080.861,968L1065.988,976.833C1051.116,985.667,1021.37,1003.333,1006.498,1023.667C991.625,1044,991.625,1067,991.625,1090C991.625,1113,991.625,1136,991.625,1159.667C991.625,1183.333,991.625,1207.667,991.625,1232C991.625,1256.333,991.625,1280.667,991.625,1304.333C991.625,1328,991.625,1351,991.625,1374C991.625,1397,991.625,1420,1018.089,1440.623C1044.552,1461.245,1097.479,1479.49,1123.943,1488.613L1150.406,1497.735" id="my-svg-edge15" class="edge-thickness-normal edge-pattern-solid transition" style="fill:none;;;fill:none" data-edge="true" data-et="edge" data-id="edge15" data-points="W3sieCI6MTA4MC44NjExNDA4MzkwNDExLCJ5Ijo5Njh9LHsieCI6OTkxLjYyNSwieSI6MTAyMX0seyJ4Ijo5OTEuNjI1LCJ5IjoxMDkwfSx7IngiOjk5MS42MjUsInkiOjExNTl9LHsieCI6OTkxLjYyNSwieSI6MTIzMn0seyJ4Ijo5OTEuNjI1LCJ5IjoxMzA1fSx7IngiOjk5MS42MjUsInkiOjEzNzR9LHsieCI6OTkxLjYyNSwieSI6MTQ0M30seyJ4IjoxMTUwLjQwNjI1LCJ5IjoxNDk3LjczNTE4Nzc4MTMwM31d" data-look="classic" marker-end="url(#my-svg_stateDiagram-barbEnd)"/><path d="M1215.483,1110L1213.467,1118.167C1211.452,1126.333,1207.421,1142.667,1205.406,1159.667C1203.391,1176.667,1203.391,1194.333,1203.391,1203.167L1203.391,1212" id="my-svg-edge16" class="edge-thickness-normal edge-pattern-solid transition" style="fill:none;;;fill:none" data-edge="true" data-et="edge" data-id="edge16" data-points="W3sieCI6MTIxNS40ODI1MDY3OTM0NzgzLCJ5IjoxMTEwfSx7IngiOjEyMDMuMzkwNjI1LCJ5IjoxMTU5fSx7IngiOjEyMDMuMzkwNjI1LCJ5IjoxMjEyfV0=" data-look="classic" marker-end="url(#my-svg_stateDiagram-barbEnd)"/><path d="M1203.391,1252L1203.391,1260.833C1203.391,1269.667,1203.391,1287.333,1203.391,1304.333C1203.391,1321.333,1203.391,1337.667,1203.391,1345.833L1203.391,1354" id="my-svg-edge17" class="edge-thickness-normal edge-pattern-solid transition" style="fill:none;;;fill:none" data-edge="true" data-et="edge" data-id="edge17" data-points="W3sieCI6MTIwMy4zOTA2MjUsInkiOjEyNTJ9LHsieCI6MTIwMy4zOTA2MjUsInkiOjEzMDV9LHsieCI6MTIwMy4zOTA2MjUsInkiOjEzNTR9XQ==" data-look="classic" marker-end="url(#my-svg_stateDiagram-barbEnd)"/><path d="M1258.094,1380.411L1347.096,1390.843C1436.099,1401.274,1614.104,1422.137,1703.107,1444.735C1792.109,1467.333,1792.109,1491.667,1792.109,1516C1792.109,1540.333,1792.109,1564.667,1792.109,1589C1792.109,1613.333,1792.109,1637.667,1792.109,1662C1792.109,1686.333,1792.109,1710.667,1792.109,1731.667C1792.109,1752.667,1792.109,1770.333,1792.109,1779.167L1792.109,1788" id="my-svg-edge18" class="edge-thickness-normal edge-pattern-solid transition" style="fill:none;;;fill:none" data-edge="true" data-et="edge" data-id="edge18" data-points="W3sieCI6MTI1OC4wOTM3NSwieSI6MTM4MC40MTE0MDcxODcyMTh9LHsieCI6MTc5Mi4xMDkzNzUsInkiOjE0NDN9LHsieCI6MTc5Mi4xMDkzNzUsInkiOjE1MTZ9LHsieCI6MTc5Mi4xMDkzNzUsInkiOjE1ODl9LHsieCI6MTc5Mi4xMDkzNzUsInkiOjE2NjJ9LHsieCI6MTc5Mi4xMDkzNzUsInkiOjE3MzV9LHsieCI6MTc5Mi4xMDkzNzUsInkiOjE3ODh9XQ==" data-look="classic" marker-end="url(#my-svg_stateDiagram-barbEnd)"/><path d="M1148.688,1377.79L991.81,1388.658C834.932,1399.527,521.177,1421.263,360.222,1440.965C199.266,1460.667,191.111,1478.333,187.033,1487.167L182.955,1496" id="my-svg-edge19" class="edge-thickness-normal edge-pattern-solid transition" style="fill:none;;;fill:none" data-edge="true" data-et="edge" data-id="edge19" data-points="W3sieCI6MTE0OC42ODc1LCJ5IjoxMzc3Ljc4OTc5MzIyODk1NDN9LHsieCI6MjA3LjQyMTg3NSwieSI6MTQ0M30seyJ4IjoxODIuOTU1MzE4OTIxMjMyODcsInkiOjE0OTZ9XQ==" data-look="classic" marker-end="url(#my-svg_stateDiagram-barbEnd)"/><path d="M1203.391,1394L1203.391,1402.167C1203.391,1410.333,1203.391,1426.667,1203.391,1443.667C1203.391,1460.667,1203.391,1478.333,1203.391,1487.167L1203.391,1496" id="my-svg-edge20" class="edge-thickness-normal edge-pattern-solid transition" style="fill:none;;;fill:none" data-edge="true" data-et="edge" data-id="edge20" data-points="W3sieCI6MTIwMy4zOTA2MjUsInkiOjEzOTR9LHsieCI6MTIwMy4zOTA2MjUsInkiOjE0NDN9LHsieCI6MTIwMy4zOTA2MjUsInkiOjE0OTZ9XQ==" data-look="classic" marker-end="url(#my-svg_stateDiagram-barbEnd)"/><path d="M1258.094,1390.503L1287.096,1399.252C1316.099,1408.002,1374.104,1425.501,1403.107,1446.417C1432.109,1467.333,1432.109,1491.667,1432.109,1516C1432.109,1540.333,1432.109,1564.667,1432.109,1589C1432.109,1613.333,1432.109,1637.667,1432.109,1662C1432.109,1686.333,1432.109,1710.667,1432.109,1731.667C1432.109,1752.667,1432.109,1770.333,1432.109,1779.167L1432.109,1788" id="my-svg-edge21" class="edge-thickness-normal edge-pattern-solid transition" style="fill:none;;;fill:none" data-edge="true" data-et="edge" data-id="edge21" data-points="W3sieCI6MTI1OC4wOTM3NSwieSI6MTM5MC41MDI4NjkyNDQ0MzIzfSx7IngiOjE0MzIuMTA5Mzc1LCJ5IjoxNDQzfSx7IngiOjE0MzIuMTA5Mzc1LCJ5IjoxNTE2fSx7IngiOjE0MzIuMTA5Mzc1LCJ5IjoxNTg5fSx7IngiOjE0MzIuMTA5Mzc1LCJ5IjoxNjYyfSx7IngiOjE0MzIuMTA5Mzc1LCJ5IjoxNzM1fSx7IngiOjE0MzIuMTA5Mzc1LCJ5IjoxNzg4fV0=" data-look="classic" marker-end="url(#my-svg_stateDiagram-barbEnd)"/><path d="M1148.688,1379.935L1051.81,1390.446C954.932,1400.957,761.177,1421.978,664.299,1444.656C567.422,1467.333,567.422,1491.667,567.422,1516C567.422,1540.333,567.422,1564.667,563.032,1585.667C558.641,1606.667,549.861,1624.333,545.471,1633.167L541.081,1642" id="my-svg-edge22" class="edge-thickness-normal edge-pattern-solid transition" style="fill:none;;;fill:none" data-edge="true" data-et="edge" data-id="edge22" data-points="W3sieCI6MTE0OC42ODc1LCJ5IjoxMzc5LjkzNTA2NDYxNTk4OTR9LHsieCI6NTY3LjQyMTg3NSwieSI6MTQ0M30seyJ4Ijo1NjcuNDIxODc1LCJ5IjoxNTE2fSx7IngiOjU2Ny40MjE4NzUsInkiOjE1ODl9LHsieCI6NTQxLjA4MDY5MzQ5MzE1MDYsInkiOjE2NDJ9XQ==" data-look="classic" marker-end="url(#my-svg_stateDiagram-barbEnd)"/><path d="M1256.375,1497.469L1282.331,1488.39C1308.286,1479.312,1360.198,1461.156,1386.154,1440.578C1412.109,1420,1412.109,1397,1412.109,1374C1412.109,1351,1412.109,1328,1412.109,1304.333C1412.109,1280.667,1412.109,1256.333,1412.109,1232C1412.109,1207.667,1412.109,1183.333,1389.421,1163C1366.733,1142.667,1321.357,1126.333,1298.669,1118.167L1275.981,1110" id="my-svg-edge23" class="edge-thickness-normal edge-pattern-solid transition" style="fill:none;;;fill:none" data-edge="true" data-et="edge" data-id="edge23" data-points="W3sieCI6MTI1Ni4zNzUsInkiOjE0OTcuNDY4NTU4MTY3MzkwM30seyJ4IjoxNDEyLjEwOTM3NSwieSI6MTQ0M30seyJ4IjoxNDEyLjEwOTM3NSwieSI6MTM3NH0seyJ4IjoxNDEyLjEwOTM3NSwieSI6MTMwNX0seyJ4IjoxNDEyLjEwOTM3NSwieSI6MTIzMn0seyJ4IjoxNDEyLjEwOTM3NSwieSI6MTE1OX0seyJ4IjoxMjc1Ljk4MDY5NTE5OTI3NTMsInkiOjExMTB9XQ==" data-look="classic" marker-end="url(#my-svg_stateDiagram-barbEnd)"/><path d="M1256.375,1527.092L1305.664,1537.41C1354.953,1547.728,1453.531,1568.364,1502.82,1590.849C1552.109,1613.333,1552.109,1637.667,1552.109,1662C1552.109,1686.333,1552.109,1710.667,1537.589,1731.667C1523.068,1752.667,1494.027,1770.333,1479.507,1779.167L1464.986,1788" id="my-svg-edge24" class="edge-thickness-normal edge-pattern-solid transition" style="fill:none;;;fill:none" data-edge="true" data-et="edge" data-id="edge24" data-points="W3sieCI6MTI1Ni4zNzUsInkiOjE1MjcuMDkxNjMwMDc0Mzc5NX0seyJ4IjoxNTUyLjEwOTM3NSwieSI6MTU4OX0seyJ4IjoxNTUyLjEwOTM3NSwieSI6MTY2Mn0seyJ4IjoxNTUyLjEwOTM3NSwieSI6MTczNX0seyJ4IjoxNDY0Ljk4NjA4NzMyODc2NywieSI6MTc4OH1d" data-look="classic" marker-end="url(#my-svg_stateDiagram-barbEnd)"/><path d="M1150.406,1523.245L1070.259,1534.204C990.112,1545.163,829.818,1567.082,732.926,1586.874C636.034,1606.667,602.544,1624.333,585.799,1633.167L569.054,1642" id="my-svg-edge25" class="edge-thickness-normal edge-pattern-solid transition" style="fill:none;;;fill:none" data-edge="true" data-et="edge" data-id="edge25" data-points="W3sieCI6MTE1MC40MDYyNSwieSI6MTUyMy4yNDQ5ODQyNjg2NzYzfSx7IngiOjY2OS41MjM0Mzc1LCJ5IjoxNTg5fSx7IngiOjU2OS4wNTM3MjQzMTUwNjg1LCJ5IjoxNjQyfV0=" data-look="classic" marker-end="url(#my-svg_stateDiagram-barbEnd)"/><path d="M1497.863,1788L1526.904,1779.167C1555.945,1770.333,1614.027,1752.667,1643.068,1731.667C1672.109,1710.667,1672.109,1686.333,1672.109,1662C1672.109,1637.667,1672.109,1613.333,1672.109,1589C1672.109,1564.667,1672.109,1540.333,1672.109,1516C1672.109,1491.667,1672.109,1467.333,1672.109,1443.667C1672.109,1420,1672.109,1397,1672.109,1374C1672.109,1351,1672.109,1328,1672.109,1304.333C1672.109,1280.667,1672.109,1256.333,1672.109,1232C1672.109,1207.667,1672.109,1183.333,1672.109,1159.667C1672.109,1136,1672.109,1113,1672.109,1090C1672.109,1067,1672.109,1044,1672.109,1020.333C1672.109,996.667,1672.109,972.333,1672.109,946C1672.109,919.667,1672.109,891.333,1672.109,863.667C1672.109,836,1672.109,809,1672.109,784C1672.109,759,1672.109,736,1672.109,713C1672.109,690,1672.109,667,1672.109,644C1672.109,621,1672.109,598,1672.109,575C1672.109,552,1672.109,529,1672.109,504C1672.109,479,1672.109,452,1672.109,425C1672.109,398,1672.109,371,1672.109,346C1672.109,321,1672.109,298,1672.109,275C1672.109,252,1672.109,229,1672.109,208C1672.109,187,1672.109,168,1567.26,149.522C1462.41,131.044,1252.711,113.088,1147.861,104.111L1043.012,95.133" id="my-svg-edge26" class="edge-thickness-normal edge-pattern-solid transition" style="fill:none;;;fill:none" data-edge="true" data-et="edge" data-id="edge26" data-points="W3sieCI6MTQ5Ny44NjI3OTk2NTc1MzQyLCJ5IjoxNzg4fSx7IngiOjE2NzIuMTA5Mzc1LCJ5IjoxNzM1fSx7IngiOjE2NzIuMTA5Mzc1LCJ5IjoxNjYyfSx7IngiOjE2NzIuMTA5Mzc1LCJ5IjoxNTg5fSx7IngiOjE2NzIuMTA5Mzc1LCJ5IjoxNTE2fSx7IngiOjE2NzIuMTA5Mzc1LCJ5IjoxNDQzfSx7IngiOjE2NzIuMTA5Mzc1LCJ5IjoxMzc0fSx7IngiOjE2NzIuMTA5Mzc1LCJ5IjoxMzA1fSx7IngiOjE2NzIuMTA5Mzc1LCJ5IjoxMjMyfSx7IngiOjE2NzIuMTA5Mzc1LCJ5IjoxMTU5fSx7IngiOjE2NzIuMTA5Mzc1LCJ5IjoxMDkwfSx7IngiOjE2NzIuMTA5Mzc1LCJ5IjoxMDIxfSx7IngiOjE2NzIuMTA5Mzc1LCJ5Ijo5NDh9LHsieCI6MTY3Mi4xMDkzNzUsInkiOjg2M30seyJ4IjoxNjcyLjEwOTM3NSwieSI6NzgyfSx7IngiOjE2NzIuMTA5Mzc1LCJ5Ijo3MTN9LHsieCI6MTY3Mi4xMDkzNzUsInkiOjY0NH0seyJ4IjoxNjcyLjEwOTM3NSwieSI6NTc1fSx7IngiOjE2NzIuMTA5Mzc1LCJ5Ijo1MDZ9LHsieCI6MTY3Mi4xMDkzNzUsInkiOjQyNX0seyJ4IjoxNjcyLjEwOTM3NSwieSI6MzQ0fSx7IngiOjE2NzIuMTA5Mzc1LCJ5IjoyNzV9LHsieCI6MTY3Mi4xMDkzNzUsInkiOjIwNn0seyJ4IjoxNjcyLjEwOTM3NSwieSI6MTQ5fSx7IngiOjEwNDMuMDExNzE4NzUsInkiOjk1LjEzMjcxNzE5MDM4ODE2fV0=" data-look="classic" marker-end="url(#my-svg_stateDiagram-barbEnd)"/><path d="M1432.109,1828L1432.109,1836.833C1432.109,1845.667,1432.109,1863.333,1453.483,1880.36C1474.857,1897.387,1517.604,1913.773,1538.978,1921.966L1560.352,1930.16" id="my-svg-edge27" class="edge-thickness-normal edge-pattern-solid transition" style="fill:none;;;fill:none" data-edge="true" data-et="edge" data-id="edge27" data-points="W3sieCI6MTQzMi4xMDkzNzUsInkiOjE4Mjh9LHsieCI6MTQzMi4xMDkzNzUsInkiOjE4ODF9LHsieCI6MTU2MC4zNTE1NjI1LCJ5IjoxOTMwLjE1OTUwNTIwODMzMzN9XQ==" data-look="classic" marker-end="url(#my-svg_stateDiagram-barbEnd)"/><path d="M1792.109,1828L1792.109,1836.833C1792.109,1845.667,1792.109,1863.333,1770.736,1880.36C1749.362,1897.387,1706.615,1913.773,1685.241,1921.966L1663.867,1930.16" id="my-svg-edge28" class="edge-thickness-normal edge-pattern-solid transition" style="fill:none;;;fill:none" data-edge="true" data-et="edge" data-id="edge28" data-points="W3sieCI6MTc5Mi4xMDkzNzUsInkiOjE4Mjh9LHsieCI6MTc5Mi4xMDkzNzUsInkiOjE4ODF9LHsieCI6MTY2My44NjcxODc1LCJ5IjoxOTMwLjE1OTUwNTIwODMzMzN9XQ==" data-look="classic" marker-end="url(#my-svg_stateDiagram-barbEnd)"/><path d="M1990.078,1828L1990.078,1836.833C1990.078,1845.667,1990.078,1863.333,1935.71,1882.092C1881.341,1900.85,1772.604,1920.701,1718.236,1930.626L1663.867,1940.551" id="my-svg-edge29" class="edge-thickness-normal edge-pattern-solid transition" style="fill:none;;;fill:none" data-edge="true" data-et="edge" data-id="edge29" data-points="W3sieCI6MTk5MC4wNzgxMjUsInkiOjE4Mjh9LHsieCI6MTk5MC4wNzgxMjUsInkiOjE4ODF9LHsieCI6MTY2My44NjcxODc1LCJ5IjoxOTQwLjU1MTM2NDIwMDA4MjZ9XQ==" data-look="classic" marker-end="url(#my-svg_stateDiagram-barbEnd)"/><path d="M1612.109,1970L1612.109,1974.167C1612.109,1978.333,1612.109,1986.667,1612.109,1994.999C1612.109,2003.331,1612.109,2011.662,1612.109,2015.828L1612.109,2019.993" id="my-svg-edge30" class="edge-thickness-normal edge-pattern-solid transition" style="fill:none;;;fill:none" data-edge="true" data-et="edge" data-id="edge30" data-points="W3sieCI6MTYxMi4xMDkzNzUsInkiOjE5NzB9LHsieCI6MTYxMi4xMDkzNzUsInkiOjE5OTV9LHsieCI6MTYxMi4xMDkzNzUsInkiOjIwMTkuOTkzMzUzMzY2ODUxOH1d" data-look="classic" marker-end="url(#my-svg_stateDiagram-barbEnd)"/></g><g class="edgeLabels"><g class="edgeLabel"><g class="label" data-id="edge0" transform="translate(0, 0)"><foreignObject width="0" height="0"><div xmlns="http://www.w3.org/1999/xhtml" class="labelBkg" style="display: table-cell; white-space: nowrap; line-height: 1.5; max-width: 200px; text-align: center;"><span class="edgeLabel"></span></div></foreignObject></g></g><g class="edgeLabel" transform="translate(360.08984375, 149)"><g class="label" data-id="edge1" transform="translate(-90.7109375, -12)"><foreignObject width="181.421875" height="24"><div xmlns="http://www.w3.org/1999/xhtml" class="labelBkg" style="display: table-cell; white-space: nowrap; line-height: 1.5; max-width: 200px; text-align: center;"><span class="edgeLabel"><p>phase funding lane opens</p></span></div></foreignObject></g></g><g class="edgeLabel" transform="translate(360.08984375, 275)"><g class="label" data-id="edge2" transform="translate(-100, -24)"><foreignObject width="200" height="48"><div xmlns="http://www.w3.org/1999/xhtml" class="labelBkg" style="display: table; white-space: break-spaces; line-height: 1.5; max-width: 200px; text-align: center; width: 200px;"><span class="edgeLabel"><p>target reached or later-phase funds reserved</p></span></div></foreignObject></g></g><g class="edgeLabel" transform="translate(1990.078125, 1021)"><g class="label" data-id="edge3" transform="translate(-100, -24)"><foreignObject width="200" height="48"><div xmlns="http://www.w3.org/1999/xhtml" class="labelBkg" style="display: table; white-space: break-spaces; line-height: 1.5; max-width: 200px; text-align: center; width: 200px;"><span class="edgeLabel"><p>phase funding deadline expires</p></span></div></foreignObject></g></g><g class="edgeLabel" transform="translate(360.08984375, 425)"><g class="label" data-id="edge4" transform="translate(-100, -36)"><foreignObject width="200" height="72"><div xmlns="http://www.w3.org/1999/xhtml" class="labelBkg" style="display: table; white-space: break-spaces; line-height: 1.5; max-width: 200px; text-align: center; width: 200px;"><span class="edgeLabel"><p>prior gate, document, control, or assurance missing</p></span></div></foreignObject></g></g><g class="edgeLabel" transform="translate(360.08984375, 575)"><g class="label" data-id="edge5" transform="translate(-100, -24)"><foreignObject width="200" height="48"><div xmlns="http://www.w3.org/1999/xhtml" class="labelBkg" style="display: table; white-space: break-spaces; line-height: 1.5; max-width: 200px; text-align: center; width: 200px;"><span class="edgeLabel"><p>prerequisite package submitted</p></span></div></foreignObject></g></g><g class="edgeLabel" transform="translate(1114.53515625, 713)"><g class="label" data-id="edge6" transform="translate(-100, -24)"><foreignObject width="200" height="48"><div xmlns="http://www.w3.org/1999/xhtml" class="labelBkg" style="display: table; white-space: break-spaces; line-height: 1.5; max-width: 200px; text-align: center; width: 200px;"><span class="edgeLabel"><p>reviewer or fiscalizer accepts phase gate</p></span></div></foreignObject></g></g><g class="edgeLabel" transform="translate(87.421875, 1090)"><g class="label" data-id="edge7" transform="translate(-79.421875, -12)"><foreignObject width="158.84375" height="24"><div xmlns="http://www.w3.org/1999/xhtml" class="labelBkg" style="display: table-cell; white-space: nowrap; line-height: 1.5; max-width: 200px; text-align: center;"><span class="edgeLabel"><p>correctable gate issue</p></span></div></foreignObject></g></g><g class="edgeLabel" transform="translate(447.421875, 1159)"><g class="label" data-id="edge8" transform="translate(-100, -24)"><foreignObject width="200" height="48"><div xmlns="http://www.w3.org/1999/xhtml" class="labelBkg" style="display: table; white-space: break-spaces; line-height: 1.5; max-width: 200px; text-align: center; width: 200px;"><span class="edgeLabel"><p>gate fails accepted baseline</p></span></div></foreignObject></g></g><g class="edgeLabel" transform="translate(771.625, 1232)"><g class="label" data-id="edge9" transform="translate(-100, -24)"><foreignObject width="200" height="48"><div xmlns="http://www.w3.org/1999/xhtml" class="labelBkg" style="display: table; white-space: break-spaces; line-height: 1.5; max-width: 200px; text-align: center; width: 200px;"><span class="edgeLabel"><p>material baseline change required</p></span></div></foreignObject></g></g><g class="edgeLabel" transform="translate(327.421875, 1090)"><g class="label" data-id="edge10" transform="translate(-75.4765625, -12)"><foreignObject width="150.953125" height="24"><div xmlns="http://www.w3.org/1999/xhtml" class="labelBkg" style="display: table-cell; white-space: nowrap; line-height: 1.5; max-width: 200px; text-align: center;"><span class="edgeLabel"><p>correction submitted</p></span></div></foreignObject></g></g><g class="edgeLabel" transform="translate(968.39363, 1717.92778)"><g class="label" data-id="edge11" transform="translate(-100, -24)"><foreignObject width="200" height="48"><div xmlns="http://www.w3.org/1999/xhtml" class="labelBkg" style="display: table; white-space: break-spaces; line-height: 1.5; max-width: 200px; text-align: center; width: 200px;"><span class="edgeLabel"><p>project may still preserve value</p></span></div></foreignObject></g></g><g class="edgeLabel" transform="translate(531.140625, 1808)"><g class="label" data-id="edge12" transform="translate(-100, -24)"><foreignObject width="200" height="48"><div xmlns="http://www.w3.org/1999/xhtml" class="labelBkg" style="display: table; white-space: break-spaces; line-height: 1.5; max-width: 200px; text-align: center; width: 200px;"><span class="edgeLabel"><p>phase cannot continue under accepted terms</p></span></div></foreignObject></g></g><g class="edgeLabel" transform="translate(1114.53515625, 863)"><g class="label" data-id="edge13" transform="translate(-100, -36)"><foreignObject width="200" height="72"><div xmlns="http://www.w3.org/1999/xhtml" class="labelBkg" style="display: table; white-space: break-spaces; line-height: 1.5; max-width: 200px; text-align: center; width: 200px;"><span class="edgeLabel"><p>funding, control, assurance, and release rules ready</p></span></div></foreignObject></g></g><g class="edgeLabel" transform="translate(1220.41796875, 1021)"><g class="label" data-id="edge14" transform="translate(-43.1796875, -12)"><foreignObject width="86.359375" height="24"><div xmlns="http://www.w3.org/1999/xhtml" class="labelBkg" style="display: table-cell; white-space: nowrap; line-height: 1.5; max-width: 200px; text-align: center;"><span class="edgeLabel"><p>phase starts</p></span></div></foreignObject></g></g><g class="edgeLabel" transform="translate(991.625, 1232)"><g class="label" data-id="edge15" transform="translate(-100, -24)"><foreignObject width="200" height="48"><div xmlns="http://www.w3.org/1999/xhtml" class="labelBkg" style="display: table; white-space: break-spaces; line-height: 1.5; max-width: 200px; text-align: center; width: 200px;"><span class="edgeLabel"><p>scoped blocker prevents start</p></span></div></foreignObject></g></g><g class="edgeLabel" transform="translate(1203.390625, 1159)"><g class="label" data-id="edge16" transform="translate(-100, -24)"><foreignObject width="200" height="48"><div xmlns="http://www.w3.org/1999/xhtml" class="labelBkg" style="display: table; white-space: break-spaces; line-height: 1.5; max-width: 200px; text-align: center; width: 200px;"><span class="edgeLabel"><p>milestone or phase evidence submitted</p></span></div></foreignObject></g></g><g class="edgeLabel" transform="translate(1203.390625, 1305)"><g class="label" data-id="edge17" transform="translate(-100, -24)"><foreignObject width="200" height="48"><div xmlns="http://www.w3.org/1999/xhtml" class="labelBkg" style="display: table; white-space: break-spaces; line-height: 1.5; max-width: 200px; text-align: center; width: 200px;"><span class="edgeLabel"><p>fiscalizer or reviewer evaluates</p></span></div></foreignObject></g></g><g class="edgeLabel" transform="translate(1792.109375, 1589)"><g class="label" data-id="edge18" transform="translate(-100, -24)"><foreignObject width="200" height="48"><div xmlns="http://www.w3.org/1999/xhtml" class="labelBkg" style="display: table; white-space: break-spaces; line-height: 1.5; max-width: 200px; text-align: center; width: 200px;"><span class="edgeLabel"><p>evidence and gate accepted</p></span></div></foreignObject></g></g><g class="edgeLabel" transform="translate(648.9371, 1412.41214)"><g class="label" data-id="edge19" transform="translate(-100, -24)"><foreignObject width="200" height="48"><div xmlns="http://www.w3.org/1999/xhtml" class="labelBkg" style="display: table; white-space: break-spaces; line-height: 1.5; max-width: 200px; text-align: center; width: 200px;"><span class="edgeLabel"><p>evidence or deliverable insufficient</p></span></div></foreignObject></g></g><g class="edgeLabel" transform="translate(1203.390625, 1443)"><g class="label" data-id="edge20" transform="translate(-78.0703125, -12)"><foreignObject width="156.140625" height="24"><div xmlns="http://www.w3.org/1999/xhtml" class="labelBkg" style="display: table-cell; white-space: nowrap; line-height: 1.5; max-width: 200px; text-align: center;"><span class="edgeLabel"><p>scoped blocker active</p></span></div></foreignObject></g></g><g class="edgeLabel" transform="translate(1432.109375, 1589)"><g class="label" data-id="edge21" transform="translate(-100, -24)"><foreignObject width="200" height="48"><div xmlns="http://www.w3.org/1999/xhtml" class="labelBkg" style="display: table; white-space: break-spaces; line-height: 1.5; max-width: 200px; text-align: center; width: 200px;"><span class="edgeLabel"><p>phase cannot meet baseline</p></span></div></foreignObject></g></g><g class="edgeLabel" transform="translate(567.421875, 1516)"><g class="label" data-id="edge22" transform="translate(-100, -24)"><foreignObject width="200" height="48"><div xmlns="http://www.w3.org/1999/xhtml" class="labelBkg" style="display: table; white-space: break-spaces; line-height: 1.5; max-width: 200px; text-align: center; width: 200px;"><span class="edgeLabel"><p>severe or uncorrected failure</p></span></div></foreignObject></g></g><g class="edgeLabel" transform="translate(1412.109375, 1305)"><g class="label" data-id="edge23" transform="translate(-88.71875, -12)"><foreignObject width="177.4375" height="24"><div xmlns="http://www.w3.org/1999/xhtml" class="labelBkg" style="display: table-cell; white-space: nowrap; line-height: 1.5; max-width: 200px; text-align: center;"><span class="edgeLabel"><p>pause lifted or narrowed</p></span></div></foreignObject></g></g><g class="edgeLabel" transform="translate(1552.109375, 1662)"><g class="label" data-id="edge24" transform="translate(-100, -24)"><foreignObject width="200" height="48"><div xmlns="http://www.w3.org/1999/xhtml" class="labelBkg" style="display: table; white-space: break-spaces; line-height: 1.5; max-width: 200px; text-align: center; width: 200px;"><span class="edgeLabel"><p>baseline cannot continue unchanged</p></span></div></foreignObject></g></g><g class="edgeLabel" transform="translate(853.69243, 1563.81708)"><g class="label" data-id="edge25" transform="translate(-82.1015625, -12)"><foreignObject width="164.203125" height="24"><div xmlns="http://www.w3.org/1999/xhtml" class="labelBkg" style="display: table-cell; white-space: nowrap; line-height: 1.5; max-width: 200px; text-align: center;"><span class="edgeLabel"><p>severe issue confirmed</p></span></div></foreignObject></g></g><g class="edgeLabel" transform="translate(1672.109375, 948)"><g class="label" data-id="edge26" transform="translate(-100, -24)"><foreignObject width="200" height="48"><div xmlns="http://www.w3.org/1999/xhtml" class="labelBkg" style="display: table; white-space: break-spaces; line-height: 1.5; max-width: 200px; text-align: center; width: 200px;"><span class="edgeLabel"><p>accepted reformulated phase version</p></span></div></foreignObject></g></g><g class="edgeLabel" transform="translate(1432.109375, 1881)"><g class="label" data-id="edge27" transform="translate(-100, -24)"><foreignObject width="200" height="48"><div xmlns="http://www.w3.org/1999/xhtml" class="labelBkg" style="display: table; white-space: break-spaces; line-height: 1.5; max-width: 200px; text-align: center; width: 200px;"><span class="edgeLabel"><p>reformulation rejected or value not preserved</p></span></div></foreignObject></g></g><g class="edgeLabel" transform="translate(1792.109375, 1881)"><g class="label" data-id="edge28" transform="translate(-100, -24)"><foreignObject width="200" height="48"><div xmlns="http://www.w3.org/1999/xhtml" class="labelBkg" style="display: table; white-space: break-spaces; line-height: 1.5; max-width: 200px; text-align: center; width: 200px;"><span class="edgeLabel"><p>phase accountability recorded</p></span></div></foreignObject></g></g><g class="edgeLabel" transform="translate(1990.078125, 1881)"><g class="label" data-id="edge29" transform="translate(-77.96875, -12)"><foreignObject width="155.9375" height="24"><div xmlns="http://www.w3.org/1999/xhtml" class="labelBkg" style="display: table-cell; white-space: nowrap; line-height: 1.5; max-width: 200px; text-align: center;"><span class="edgeLabel"><p>unused funds handled</p></span></div></foreignObject></g></g><g class="edgeLabel"><g class="label" data-id="edge30" transform="translate(0, 0)"><foreignObject width="0" height="0"><div xmlns="http://www.w3.org/1999/xhtml" class="labelBkg" style="display: table-cell; white-space: nowrap; line-height: 1.5; max-width: 200px; text-align: center;"><span class="edgeLabel"></span></div></foreignObject></g></g></g><g class="nodes"><g class="node default" id="my-svg-state-root_start-0" data-look="classic" transform="translate(1006.42578125, 15)"><circle class="state-start" r="7" width="14" height="14"/></g><g class="node  statediagram-state" id="my-svg-state-Planned-26" data-look="classic" transform="translate(1006.42578125, 92)"><rect class="basic label-container" style="" rx="5" ry="5" x="-36.5859375" y="-20" width="73.171875" height="40"/><g class="label" style="" transform="translate(-28.5859375, -12)"><rect/><foreignObject width="57.171875" height="24"><div xmlns="http://www.w3.org/1999/xhtml" style="display: table-cell; white-space: nowrap; line-height: 1.5; max-width: 200px; text-align: center;"><span class="nodeLabel markdown-node-label"><p>Planned</p></span></div></foreignObject></g></g><g class="node  statediagram-state" id="my-svg-state-FundingOpen-3" data-look="classic" transform="translate(360.08984375, 206)"><rect class="basic label-container" style="" rx="5" ry="5" x="-54.6484375" y="-20" width="109.296875" height="40"/><g class="label" style="" transform="translate(-46.6484375, -12)"><rect/><foreignObject width="93.296875" height="24"><div xmlns="http://www.w3.org/1999/xhtml" style="display: table-cell; white-space: nowrap; line-height: 1.5; max-width: 200px; text-align: center;"><span class="nodeLabel markdown-node-label"><p>FundingOpen</p></span></div></foreignObject></g></g><g class="node  statediagram-state" id="my-svg-state-FundingReserved-4" data-look="classic" transform="translate(360.08984375, 344)"><rect class="basic label-container" style="" rx="5" ry="5" x="-68.2109375" y="-20" width="136.421875" height="40"/><g class="label" style="" transform="translate(-60.2109375, -12)"><rect/><foreignObject width="120.421875" height="24"><div xmlns="http://www.w3.org/1999/xhtml" style="display: table-cell; white-space: nowrap; line-height: 1.5; max-width: 200px; text-align: center;"><span class="nodeLabel markdown-node-label"><p>FundingReserved</p></span></div></foreignObject></g></g><g class="node  statediagram-state" id="my-svg-state-PhaseExpired-29" data-look="classic" transform="translate(1990.078125, 1808)"><rect class="basic label-container" style="" rx="5" ry="5" x="-55.2265625" y="-20" width="110.453125" height="40"/><g class="label" style="" transform="translate(-47.2265625, -12)"><rect/><foreignObject width="94.453125" height="24"><div xmlns="http://www.w3.org/1999/xhtml" style="display: table-cell; white-space: nowrap; line-height: 1.5; max-width: 200px; text-align: center;"><span class="nodeLabel markdown-node-label"><p>PhaseExpired</p></span></div></foreignObject></g></g><g class="node  statediagram-state" id="my-svg-state-PrerequisitePending-5" data-look="classic" transform="translate(360.08984375, 506)"><rect class="basic label-container" style="" rx="5" ry="5" x="-79.140625" y="-20" width="158.28125" height="40"/><g class="label" style="" transform="translate(-71.140625, -12)"><rect/><foreignObject width="142.28125" height="24"><div xmlns="http://www.w3.org/1999/xhtml" style="display: table-cell; white-space: nowrap; line-height: 1.5; max-width: 200px; text-align: center;"><span class="nodeLabel markdown-node-label"><p>PrerequisitePending</p></span></div></foreignObject></g></g><g class="node  statediagram-state" id="my-svg-state-GatePendingReview-10" data-look="classic" transform="translate(360.08984375, 644)"><rect class="basic label-container" style="" rx="5" ry="5" x="-78.3046875" y="-20" width="156.609375" height="40"/><g class="label" style="" transform="translate(-70.3046875, -12)"><rect/><foreignObject width="140.609375" height="24"><div xmlns="http://www.w3.org/1999/xhtml" style="display: table-cell; white-space: nowrap; line-height: 1.5; max-width: 200px; text-align: center;"><span class="nodeLabel markdown-node-label"><p>GatePendingReview</p></span></div></foreignObject></g></g><g class="node  statediagram-state" id="my-svg-state-GateAccepted-13" data-look="classic" transform="translate(1114.53515625, 782)"><rect class="basic label-container" style="" rx="5" ry="5" x="-58.6015625" y="-20" width="117.203125" height="40"/><g class="label" style="" transform="translate(-50.6015625, -12)"><rect/><foreignObject width="101.203125" height="24"><div xmlns="http://www.w3.org/1999/xhtml" style="display: table-cell; white-space: nowrap; line-height: 1.5; max-width: 200px; text-align: center;"><span class="nodeLabel markdown-node-label"><p>GateAccepted</p></span></div></foreignObject></g></g><g class="node  statediagram-state" id="my-svg-state-PhaseCorrectionRequired-19" data-look="classic" transform="translate(173.72265625, 1516)"><rect class="basic label-container" style="" rx="5" ry="5" x="-97.734375" y="-20" width="195.46875" height="40"/><g class="label" style="" transform="translate(-89.734375, -12)"><rect/><foreignObject width="179.46875" height="24"><div xmlns="http://www.w3.org/1999/xhtml" style="display: table-cell; white-space: nowrap; line-height: 1.5; max-width: 200px; text-align: center;"><span class="nodeLabel markdown-node-label"><p>PhaseCorrectionRequired</p></span></div></foreignObject></g></g><g class="node  statediagram-state" id="my-svg-state-PhaseRejected-25" data-look="classic" transform="translate(531.140625, 1662)"><rect class="basic label-container" style="" rx="5" ry="5" x="-60.2109375" y="-20" width="120.421875" height="40"/><g class="label" style="" transform="translate(-52.2109375, -12)"><rect/><foreignObject width="104.421875" height="24"><div xmlns="http://www.w3.org/1999/xhtml" style="display: table-cell; white-space: nowrap; line-height: 1.5; max-width: 200px; text-align: center;"><span class="nodeLabel markdown-node-label"><p>PhaseRejected</p></span></div></foreignObject></g></g><g class="node  statediagram-state" id="my-svg-state-PhaseRequiresReformulation-27" data-look="classic" transform="translate(1432.109375, 1808)"><rect class="basic label-container" style="" rx="5" ry="5" x="-109.5234375" y="-20" width="219.046875" height="40"/><g class="label" style="" transform="translate(-101.5234375, -12)"><rect/><foreignObject width="203.046875" height="24"><div xmlns="http://www.w3.org/1999/xhtml" style="display: table; white-space: break-spaces; line-height: 1.5; max-width: 200px; text-align: center; width: 200px;"><span class="nodeLabel markdown-node-label"><p>PhaseRequiresReformulation</p></span></div></foreignObject></g></g><g class="node  statediagram-state" id="my-svg-state-PhaseClosed-30" data-look="classic" transform="translate(1612.109375, 1950)"><rect class="basic label-container" style="" rx="5" ry="5" x="-51.7578125" y="-20" width="103.515625" height="40"/><g class="label" style="" transform="translate(-43.7578125, -12)"><rect/><foreignObject width="87.515625" height="24"><div xmlns="http://www.w3.org/1999/xhtml" style="display: table-cell; white-space: nowrap; line-height: 1.5; max-width: 200px; text-align: center;"><span class="nodeLabel markdown-node-label"><p>PhaseClosed</p></span></div></foreignObject></g></g><g class="node  statediagram-state" id="my-svg-state-PhaseExecutionReady-15" data-look="classic" transform="translate(1114.53515625, 948)"><rect class="basic label-container" style="" rx="5" ry="5" x="-84.671875" y="-20" width="169.34375" height="40"/><g class="label" style="" transform="translate(-76.671875, -12)"><rect/><foreignObject width="153.34375" height="24"><div xmlns="http://www.w3.org/1999/xhtml" style="display: table-cell; white-space: nowrap; line-height: 1.5; max-width: 200px; text-align: center;"><span class="nodeLabel markdown-node-label"><p>PhaseExecutionReady</p></span></div></foreignObject></g></g><g class="node  statediagram-state" id="my-svg-state-PhaseInExecution-23" data-look="classic" transform="translate(1220.41796875, 1090)"><rect class="basic label-container" style="" rx="5" ry="5" x="-69.96875" y="-20" width="139.9375" height="40"/><g class="label" style="" transform="translate(-61.96875, -12)"><rect/><foreignObject width="123.9375" height="24"><div xmlns="http://www.w3.org/1999/xhtml" style="display: table-cell; white-space: nowrap; line-height: 1.5; max-width: 200px; text-align: center;"><span class="nodeLabel markdown-node-label"><p>PhaseInExecution</p></span></div></foreignObject></g></g><g class="node  statediagram-state" id="my-svg-state-PhasePaused-25" data-look="classic" transform="translate(1203.390625, 1516)"><rect class="basic label-container" style="" rx="5" ry="5" x="-52.984375" y="-20" width="105.96875" height="40"/><g class="label" style="" transform="translate(-44.984375, -12)"><rect/><foreignObject width="89.96875" height="24"><div xmlns="http://www.w3.org/1999/xhtml" style="display: table-cell; white-space: nowrap; line-height: 1.5; max-width: 200px; text-align: center;"><span class="nodeLabel markdown-node-label"><p>PhasePaused</p></span></div></foreignObject></g></g><g class="node  statediagram-state" id="my-svg-state-EvidenceSubmitted-17" data-look="classic" transform="translate(1203.390625, 1232)"><rect class="basic label-container" style="" rx="5" ry="5" x="-76.765625" y="-20" width="153.53125" height="40"/><g class="label" style="" transform="translate(-68.765625, -12)"><rect/><foreignObject width="137.53125" height="24"><div xmlns="http://www.w3.org/1999/xhtml" style="display: table-cell; white-space: nowrap; line-height: 1.5; max-width: 200px; text-align: center;"><span class="nodeLabel markdown-node-label"><p>EvidenceSubmitted</p></span></div></foreignObject></g></g><g class="node  statediagram-state" id="my-svg-state-UnderReview-22" data-look="classic" transform="translate(1203.390625, 1374)"><rect class="basic label-container" style="" rx="5" ry="5" x="-54.703125" y="-20" width="109.40625" height="40"/><g class="label" style="" transform="translate(-46.703125, -12)"><rect/><foreignObject width="93.40625" height="24"><div xmlns="http://www.w3.org/1999/xhtml" style="display: table-cell; white-space: nowrap; line-height: 1.5; max-width: 200px; text-align: center;"><span class="nodeLabel markdown-node-label"><p>UnderReview</p></span></div></foreignObject></g></g><g class="node  statediagram-state" id="my-svg-state-PhaseCompleted-28" data-look="classic" transform="translate(1792.109375, 1808)"><rect class="basic label-container" style="" rx="5" ry="5" x="-67.15625" y="-20" width="134.3125" height="40"/><g class="label" style="" transform="translate(-59.15625, -12)"><rect/><foreignObject width="118.3125" height="24"><div xmlns="http://www.w3.org/1999/xhtml" style="display: table-cell; white-space: nowrap; line-height: 1.5; max-width: 200px; text-align: center;"><span class="nodeLabel markdown-node-label"><p>PhaseCompleted</p></span></div></foreignObject></g></g><g class="node default" id="my-svg-state-root_end-30" data-look="classic" transform="translate(1612.109375, 2027)"><g class="outer-path"><path d="M7 0 C7 0.40517908122283747, 6.964012880168563 0.816513743121899, 6.893654271085456 1.2155372436685123 C6.823295662002349 1.6145607442151257, 6.716427752933756 2.013397210557766, 6.5778483455013586 2.394141003279681 C6.439268938068961 2.7748847960015954, 6.26476736710249 3.149104622578984, 6.062177826491071 3.4999999999999996 C5.859588285879653 3.8508953774210153, 5.622755194947063 4.189128084166967, 5.362311101832846 4.499513267805774 C5.10186700871863 4.809898451444582, 4.809898451444583 5.10186700871863, 4.499513267805775 5.362311101832846 C4.189128084166968 5.622755194947063, 3.8508953774210166 5.859588285879652, 3.500000000000001 6.06217782649107 C3.149104622578985 6.264767367102489, 2.7748847960015963 6.439268938068961, 2.3941410032796817 6.5778483455013586 C2.013397210557767 6.716427752933756, 1.6145607442151264 6.823295662002349, 1.2155372436685128 6.893654271085456 C0.8165137431218992 6.964012880168563, 0.4051790812228379 7, 4.286263797015736e-16 7 C-0.405179081222837 7, -0.8165137431218985 6.964012880168563, -1.2155372436685121 6.893654271085456 C-1.6145607442151257 6.823295662002349, -2.0133972105577667 6.716427752933756, -2.394141003279681 6.5778483455013586 C-2.774884796001595 6.439268938068961, -3.149104622578983 6.26476736710249, -3.4999999999999982 6.062177826491071 C-3.8508953774210135 5.859588285879653, -4.189128084166966 5.6227551949470636, -4.499513267805773 5.362311101832848 C-4.809898451444581 5.101867008718632, -5.101867008718628 4.809898451444586, -5.3623111018328435 4.499513267805779 C-5.622755194947059 4.189128084166971, -5.859588285879649 3.8508953774210206, -6.062177826491068 3.5000000000000053 C-6.264767367102486 3.14910462257899, -6.439268938068958 2.774884796001602, -6.577848345501356 2.394141003279688 C-6.716427752933754 2.0133972105577738, -6.823295662002347 1.614560744215134, -6.893654271085454 1.215537243668521 C-6.9640128801685615 0.816513743121908, -6.999999999999999 0.4051790812228472, -7 1.0183126166254463e-14 C-7.000000000000001 -0.40517908122282686, -6.964012880168565 -0.8165137431218878, -6.893654271085459 -1.215537243668501 C-6.823295662002352 -1.6145607442151142, -6.716427752933759 -2.0133972105577542, -6.577848345501363 -2.394141003279669 C-6.439268938068967 -2.7748847960015834, -6.264767367102496 -3.149104622578972, -6.062177826491078 -3.4999999999999876 C-5.859588285879661 -3.8508953774210033, -5.6227551949470715 -4.1891280841669545, -5.362311101832856 -4.499513267805763 C-5.10186700871864 -4.809898451444571, -4.809898451444594 -5.10186700871862, -4.499513267805787 -5.362311101832836 C-4.189128084166979 -5.622755194947053, -3.850895377421028 -5.859588285879643, -3.5000000000000133 -6.062177826491062 C-3.1491046225789985 -6.264767367102482, -2.774884796001611 -6.439268938068954, -2.3941410032796973 -6.577848345501353 C-2.0133972105577835 -6.716427752933752, -1.6145607442151435 -6.823295662002345, -1.2155372436685306 -6.893654271085453 C-0.8165137431219176 -6.9640128801685615, -0.40517908122285695 -6.999999999999999, -1.9937625952807352e-14 -7 C0.4051790812228171 -7.000000000000001, 0.8165137431218781 -6.964012880168565, 1.2155372436684913 -6.89365427108546 C1.6145607442151044 -6.823295662002354, 2.013397210557745 -6.716427752933763, 2.3941410032796595 -6.5778483455013665 C2.774884796001574 -6.43926893806897, 3.149104622578963 -6.2647673671025, 3.499999999999979 -6.062177826491083 C3.8508953774209953 -5.859588285879665, 4.189128084166947 -5.622755194947077, 4.499513267805756 -5.362311101832862 C4.809898451444564 -5.1018670087186475, 5.101867008718613 -4.809898451444602, 5.362311101832829 -4.499513267805796 C5.622755194947046 -4.189128084166989, 5.859588285879637 -3.8508953774210393, 6.062177826491056 -3.500000000000025 C6.2647673671024755 -3.1491046225790105, 6.439268938068949 -2.774884796001623, 6.577848345501348 -2.3941410032797092 C6.716427752933747 -2.0133972105577955, 6.823295662002342 -1.6145607442151562, 6.893654271085451 -1.2155372436685434 C6.96401288016856 -0.8165137431219307, 6.982275711847575 -0.2025895406114567, 7 -3.2800750208310675e-14 C7.017724288152425 0.2025895406113911, 7.017724288152424 -0.2025895406114242, 7 0" stroke="none" stroke-width="0" fill="#ECECFF" style=""/><path d="M7 0 C7 0.40517908122283747, 6.964012880168563 0.816513743121899, 6.893654271085456 1.2155372436685123 C6.823295662002349 1.6145607442151257, 6.716427752933756 2.013397210557766, 6.5778483455013586 2.394141003279681 C6.439268938068961 2.7748847960015954, 6.26476736710249 3.149104622578984, 6.062177826491071 3.4999999999999996 C5.859588285879653 3.8508953774210153, 5.622755194947063 4.189128084166967, 5.362311101832846 4.499513267805774 C5.10186700871863 4.809898451444582, 4.809898451444583 5.10186700871863, 4.499513267805775 5.362311101832846 C4.189128084166968 5.622755194947063, 3.8508953774210166 5.859588285879652, 3.500000000000001 6.06217782649107 C3.149104622578985 6.264767367102489, 2.7748847960015963 6.439268938068961, 2.3941410032796817 6.5778483455013586 C2.013397210557767 6.716427752933756, 1.6145607442151264 6.823295662002349, 1.2155372436685128 6.893654271085456 C0.8165137431218992 6.964012880168563, 0.4051790812228379 7, 4.286263797015736e-16 7 C-0.405179081222837 7, -0.8165137431218985 6.964012880168563, -1.2155372436685121 6.893654271085456 C-1.6145607442151257 6.823295662002349, -2.0133972105577667 6.716427752933756, -2.394141003279681 6.5778483455013586 C-2.774884796001595 6.439268938068961, -3.149104622578983 6.26476736710249, -3.4999999999999982 6.062177826491071 C-3.8508953774210135 5.859588285879653, -4.189128084166966 5.6227551949470636, -4.499513267805773 5.362311101832848 C-4.809898451444581 5.101867008718632, -5.101867008718628 4.809898451444586, -5.3623111018328435 4.499513267805779 C-5.622755194947059 4.189128084166971, -5.859588285879649 3.8508953774210206, -6.062177826491068 3.5000000000000053 C-6.264767367102486 3.14910462257899, -6.439268938068958 2.774884796001602, -6.577848345501356 2.394141003279688 C-6.716427752933754 2.0133972105577738, -6.823295662002347 1.614560744215134, -6.893654271085454 1.215537243668521 C-6.9640128801685615 0.816513743121908, -6.999999999999999 0.4051790812228472, -7 1.0183126166254463e-14 C-7.000000000000001 -0.40517908122282686, -6.964012880168565 -0.8165137431218878, -6.893654271085459 -1.215537243668501 C-6.823295662002352 -1.6145607442151142, -6.716427752933759 -2.0133972105577542, -6.577848345501363 -2.394141003279669 C-6.439268938068967 -2.7748847960015834, -6.264767367102496 -3.149104622578972, -6.062177826491078 -3.4999999999999876 C-5.859588285879661 -3.8508953774210033, -5.6227551949470715 -4.1891280841669545, -5.362311101832856 -4.499513267805763 C-5.10186700871864 -4.809898451444571, -4.809898451444594 -5.10186700871862, -4.499513267805787 -5.362311101832836 C-4.189128084166979 -5.622755194947053, -3.850895377421028 -5.859588285879643, -3.5000000000000133 -6.062177826491062 C-3.1491046225789985 -6.264767367102482, -2.774884796001611 -6.439268938068954, -2.3941410032796973 -6.577848345501353 C-2.0133972105577835 -6.716427752933752, -1.6145607442151435 -6.823295662002345, -1.2155372436685306 -6.893654271085453 C-0.8165137431219176 -6.9640128801685615, -0.40517908122285695 -6.999999999999999, -1.9937625952807352e-14 -7 C0.4051790812228171 -7.000000000000001, 0.8165137431218781 -6.964012880168565, 1.2155372436684913 -6.89365427108546 C1.6145607442151044 -6.823295662002354, 2.013397210557745 -6.716427752933763, 2.3941410032796595 -6.5778483455013665 C2.774884796001574 -6.43926893806897, 3.149104622578963 -6.2647673671025, 3.499999999999979 -6.062177826491083 C3.8508953774209953 -5.859588285879665, 4.189128084166947 -5.622755194947077, 4.499513267805756 -5.362311101832862 C4.809898451444564 -5.1018670087186475, 5.101867008718613 -4.809898451444602, 5.362311101832829 -4.499513267805796 C5.622755194947046 -4.189128084166989, 5.859588285879637 -3.8508953774210393, 6.062177826491056 -3.500000000000025 C6.2647673671024755 -3.1491046225790105, 6.439268938068949 -2.774884796001623, 6.577848345501348 -2.3941410032797092 C6.716427752933747 -2.0133972105577955, 6.823295662002342 -1.6145607442151562, 6.893654271085451 -1.2155372436685434 C6.96401288016856 -0.8165137431219307, 6.982275711847575 -0.2025895406114567, 7 -3.2800750208310675e-14 C7.017724288152425 0.2025895406113911, 7.017724288152424 -0.2025895406114242, 7 0" stroke="#333333" stroke-width="2" fill="none" stroke-dasharray="0 0" style=""/><g><path d="M2.5 0 C2.5 0.14470681472244193, 2.487147457203058 0.29161205111496386, 2.46201938253052 0.4341204441673258 C2.436891307857982 0.5766288372196877, 2.3987241974763416 0.7190704323420595, 2.3492315519647713 0.8550503583141718 C2.299738906453201 0.991030284286284, 2.2374169168223177 1.124680222349637, 2.165063509461097 1.2499999999999998 C2.092710102099876 1.3753197776503625, 2.0081268553382365 1.496117172916774, 1.915111107797445 1.6069690242163481 C1.8220953602566536 1.7178208755159223, 1.7178208755159226 1.8220953602566536, 1.6069690242163484 1.915111107797445 C1.4961171729167742 2.0081268553382365, 1.375319777650363 2.0927101020998755, 1.2500000000000002 2.1650635094610964 C1.1246802223496375 2.2374169168223172, 0.9910302842862845 2.2997389064532, 0.8550503583141721 2.349231551964771 C0.7190704323420597 2.3987241974763416, 0.576628837219688 2.436891307857982, 0.43412044416732604 2.46201938253052 C0.291612051114964 2.487147457203058, 0.14470681472244212 2.5, 1.5308084989341916e-16 2.5 C-0.1447068147224418 2.5, -0.2916120511149638 2.487147457203058, -0.43412044416732576 2.46201938253052 C-0.5766288372196877 2.436891307857982, -0.7190704323420595 2.3987241974763416, -0.8550503583141718 2.3492315519647713 C-0.991030284286284 2.299738906453201, -1.124680222349637 2.2374169168223177, -1.2499999999999996 2.165063509461097 C-1.375319777650362 2.092710102099876, -1.4961171729167733 2.008126855338237, -1.6069690242163475 1.9151111077974459 C-1.7178208755159217 1.8220953602566548, -1.822095360256653 1.7178208755159234, -1.9151111077974443 1.6069690242163495 C-2.0081268553382357 1.4961171729167755, -2.0927101020998746 1.3753197776503645, -2.1650635094610955 1.250000000000002 C-2.2374169168223164 1.1246802223496395, -2.2997389064531992 0.9910302842862865, -2.34923155196477 0.8550503583141743 C-2.3987241974763407 0.7190704323420621, -2.436891307857981 0.5766288372196907, -2.4620193825305194 0.434120444167329 C-2.487147457203058 0.29161205111496724, -2.5 0.14470681472244545, -2.5 3.636830773662308e-15 C-2.5 -0.14470681472243818, -2.4871474572030587 -0.2916120511149599, -2.4620193825305208 -0.4341204441673218 C-2.436891307857983 -0.5766288372196837, -2.398724197476343 -0.7190704323420553, -2.3492315519647726 -0.8550503583141675 C-2.2997389064532023 -0.9910302842862798, -2.23741691682232 -1.1246802223496328, -2.165063509461099 -1.2499999999999956 C-2.092710102099878 -1.3753197776503583, -2.00812685533824 -1.4961171729167695, -1.9151111077974488 -1.606969024216344 C-1.8220953602566576 -1.7178208755159183, -1.7178208755159263 -1.82209536025665, -1.6069690242163523 -1.9151111077974416 C-1.4961171729167784 -2.0081268553382334, -1.3753197776503672 -2.0927101020998724, -1.2500000000000047 -2.1650635094610937 C-1.1246802223496422 -2.237416916822315, -0.9910302842862897 -2.299738906453198, -0.8550503583141776 -2.3492315519647686 C-0.7190704323420656 -2.3987241974763394, -0.5766288372196942 -2.4368913078579806, -0.43412044416733236 -2.462019382530519 C-0.29161205111497057 -2.4871474572030574, -0.1447068147224489 -2.4999999999999996, -7.120580697431198e-15 -2.5 C0.14470681472243463 -2.5000000000000004, 0.29161205111495647 -2.487147457203059, 0.4341204441673183 -2.4620193825305217 C0.5766288372196802 -2.436891307857984, 0.7190704323420518 -2.3987241974763442, 0.8550503583141642 -2.349231551964774 C0.9910302842862766 -2.2997389064532037, 1.1246802223496295 -2.2374169168223212, 1.2499999999999925 -2.165063509461101 C1.3753197776503554 -2.0927101020998804, 1.4961171729167668 -2.008126855338242, 1.6069690242163412 -1.915111107797451 C1.7178208755159157 -1.82209536025666, 1.8220953602566472 -1.7178208755159294, 1.915111107797439 -1.6069690242163557 C2.0081268553382308 -1.496117172916782, 2.09271010209987 -1.3753197776503712, 2.1650635094610915 -1.2500000000000089 C2.237416916822313 -1.1246802223496466, 2.299738906453196 -0.9910302842862939, 2.3492315519647673 -0.855050358314182 C2.3987241974763385 -0.71907043234207, 2.4368913078579792 -0.5766288372196986, 2.462019382530518 -0.4341204441673369 C2.487147457203057 -0.29161205111497523, 2.4936698970884197 -0.07235340736123454, 2.5 -1.1714553645825241e-14 C2.5063301029115803 0.07235340736121111, 2.50633010291158 -0.07235340736122292, 2.5 0" stroke="none" stroke-width="0" fill="#9370DB" style=""/><path d="M2.5 0 C2.5 0.14470681472244193, 2.487147457203058 0.29161205111496386, 2.46201938253052 0.4341204441673258 C2.436891307857982 0.5766288372196877, 2.3987241974763416 0.7190704323420595, 2.3492315519647713 0.8550503583141718 C2.299738906453201 0.991030284286284, 2.2374169168223177 1.124680222349637, 2.165063509461097 1.2499999999999998 C2.092710102099876 1.3753197776503625, 2.0081268553382365 1.496117172916774, 1.915111107797445 1.6069690242163481 C1.8220953602566536 1.7178208755159223, 1.7178208755159226 1.8220953602566536, 1.6069690242163484 1.915111107797445 C1.4961171729167742 2.0081268553382365, 1.375319777650363 2.0927101020998755, 1.2500000000000002 2.1650635094610964 C1.1246802223496375 2.2374169168223172, 0.9910302842862845 2.2997389064532, 0.8550503583141721 2.349231551964771 C0.7190704323420597 2.3987241974763416, 0.576628837219688 2.436891307857982, 0.43412044416732604 2.46201938253052 C0.291612051114964 2.487147457203058, 0.14470681472244212 2.5, 1.5308084989341916e-16 2.5 C-0.1447068147224418 2.5, -0.2916120511149638 2.487147457203058, -0.43412044416732576 2.46201938253052 C-0.5766288372196877 2.436891307857982, -0.7190704323420595 2.3987241974763416, -0.8550503583141718 2.3492315519647713 C-0.991030284286284 2.299738906453201, -1.124680222349637 2.2374169168223177, -1.2499999999999996 2.165063509461097 C-1.375319777650362 2.092710102099876, -1.4961171729167733 2.008126855338237, -1.6069690242163475 1.9151111077974459 C-1.7178208755159217 1.8220953602566548, -1.822095360256653 1.7178208755159234, -1.9151111077974443 1.6069690242163495 C-2.0081268553382357 1.4961171729167755, -2.0927101020998746 1.3753197776503645, -2.1650635094610955 1.250000000000002 C-2.2374169168223164 1.1246802223496395, -2.2997389064531992 0.9910302842862865, -2.34923155196477 0.8550503583141743 C-2.3987241974763407 0.7190704323420621, -2.436891307857981 0.5766288372196907, -2.4620193825305194 0.434120444167329 C-2.487147457203058 0.29161205111496724, -2.5 0.14470681472244545, -2.5 3.636830773662308e-15 C-2.5 -0.14470681472243818, -2.4871474572030587 -0.2916120511149599, -2.4620193825305208 -0.4341204441673218 C-2.436891307857983 -0.5766288372196837, -2.398724197476343 -0.7190704323420553, -2.3492315519647726 -0.8550503583141675 C-2.2997389064532023 -0.9910302842862798, -2.23741691682232 -1.1246802223496328, -2.165063509461099 -1.2499999999999956 C-2.092710102099878 -1.3753197776503583, -2.00812685533824 -1.4961171729167695, -1.9151111077974488 -1.606969024216344 C-1.8220953602566576 -1.7178208755159183, -1.7178208755159263 -1.82209536025665, -1.6069690242163523 -1.9151111077974416 C-1.4961171729167784 -2.0081268553382334, -1.3753197776503672 -2.0927101020998724, -1.2500000000000047 -2.1650635094610937 C-1.1246802223496422 -2.237416916822315, -0.9910302842862897 -2.299738906453198, -0.8550503583141776 -2.3492315519647686 C-0.7190704323420656 -2.3987241974763394, -0.5766288372196942 -2.4368913078579806, -0.43412044416733236 -2.462019382530519 C-0.29161205111497057 -2.4871474572030574, -0.1447068147224489 -2.4999999999999996, -7.120580697431198e-15 -2.5 C0.14470681472243463 -2.5000000000000004, 0.29161205111495647 -2.487147457203059, 0.4341204441673183 -2.4620193825305217 C0.5766288372196802 -2.436891307857984, 0.7190704323420518 -2.3987241974763442, 0.8550503583141642 -2.349231551964774 C0.9910302842862766 -2.2997389064532037, 1.1246802223496295 -2.2374169168223212, 1.2499999999999925 -2.165063509461101 C1.3753197776503554 -2.0927101020998804, 1.4961171729167668 -2.008126855338242, 1.6069690242163412 -1.915111107797451 C1.7178208755159157 -1.82209536025666, 1.8220953602566472 -1.7178208755159294, 1.915111107797439 -1.6069690242163557 C2.0081268553382308 -1.496117172916782, 2.09271010209987 -1.3753197776503712, 2.1650635094610915 -1.2500000000000089 C2.237416916822313 -1.1246802223496466, 2.299738906453196 -0.9910302842862939, 2.3492315519647673 -0.855050358314182 C2.3987241974763385 -0.71907043234207, 2.4368913078579792 -0.5766288372196986, 2.462019382530518 -0.4341204441673369 C2.487147457203057 -0.29161205111497523, 2.4936698970884197 -0.07235340736123454, 2.5 -1.1714553645825241e-14 C2.5063301029115803 0.07235340736121111, 2.50633010291158 -0.07235340736122292, 2.5 0" stroke="#9370DB" stroke-width="2" fill="none" stroke-dasharray="0 0" style=""/></g></g></g></g></g></g><defs><filter id="my-svg-drop-shadow" height="130%" width="130%"><feDropShadow dx="4" dy="4" stdDeviation="0" flood-opacity="0.06" flood-color="#000000"/></filter></defs><defs><filter id="my-svg-drop-shadow-small" height="150%" width="150%"><feDropShadow dx="2" dy="2" stdDeviation="0" flood-opacity="0.06" flood-color="#000000"/></filter></defs></svg>